:SAMPLES-PER-SECOND 30
:FULLY-SPECIFIED
:DEGREES
254
root  34.80171144 36.4945239 -14.97204097 8.032824516 -5.995587826 3.804624081
lowerback  -6.904419899 -2.172470093 -1.66967988
upperback  -4.443536758 -2.337939978 -3.310250044
thorax  -0.7904139757 -0.9805909991 -2.619189978
lowerneck  -5.181190014 -13.39480019 -11.72369957
upperneck  14.36270046 -18.52569962 11.79409981
head  7.466869831 -8.619370461 3.89812994
lclavicle  0 -4.497500157e-015 -2.743230041e-014
lhumerus  -50.89120102 29.29080009 62.20140076
lradius  -2.057401616e-006 -6.507048965e-006 31.24040031
lwrist  4.824992743e-007 -3.790274832e-007 -27.21409988
lhand  -4.419802984e-031 -36.97169876 -10.33479977
lfingers  90 7.125020027 -90
lthumb  94.77701547 -25.17443324 101.1146584
rclavicle  0 -4.497500157e-015 -2.743230041e-014
rhumerus  -65.9910965 -27.79739952 -3.816000938
rradius  -5.16745672e-007 2.214343908e-008 98.62419891
rwrist  -0.0001011603963 0.002475851914 171.5431671
rhand  -0 3.164629936 -5.974820137
rfingers  -90 -7.125020027 -90
rthumb  -84.58422003 -9.813972112 -60.91679388
rfemur  -12.57496834 16.71601868 12.85862446
rtibia  -1.489485621 -1.032657385 21.70644951
rfoot  -0.03522157297 -22.10027885 -35.9131279
rtoes  3.787754031 19.65248545 -101.1365773
lfemur  -8.121201515 -16.98559189 -20.54302788
ltibia  2.192975521 -1.474394917 15.42779922
lfoot  1.020700693 -23.02921486 38.1819191
ltoes  -8.660252044 -18.09736669 -116.1199573
255
root  34.79856957 36.49419649 -14.97152434 8.027428627 -5.996863842 3.798730373
lowerback  -6.945680141 -2.184210062 -1.63038981
upperback  -4.439910889 -2.354419947 -3.302580118
thorax  -0.7663530111 -0.9897400141 -2.635740042
lowerneck  -5.250060081 -13.29969978 -11.70849991
upperneck  14.48519993 -18.39080048 11.76060009
head  7.497059822 -8.549220085 3.898550034
lclavicle  0 -4.497500157e-015 -2.743230041e-014
lhumerus  -50.89020157 29.26169968 62.22359848
lradius  -2.057401616e-006 -6.507048965e-006 31.2526989
lwrist  4.824992743e-007 -3.790274832e-007 -27.20159912
lhand  -4.418108711e-031 -36.94250107 -10.35639954
lfingers  90 7.125020027 -90
lthumb  94.76811891 -25.19669967 101.0854417
rclavicle  0 -4.497500157e-015 -2.743230041e-014
rhumerus  -66.79499817 -27.67160034 -4.678447247
rradius  -5.16745672e-007 2.214343908e-008 99.33760071
rwrist  -0.0001011603963 0.002704923507 171.6421356
rhand  -1.768079281e-031 3.057450056 -5.950059891
rfingers  -90 -7.125020027 -90
rthumb  -84.59812711 -9.830268758 -61.01961776
rfemur  -12.56153297 16.65689468 12.86506653
rtibia  -1.48415935 -1.046450615 21.69307899
rfoot  -0.03811911866 -22.13837051 -35.89994431
rtoes  3.779771768 19.65396365 -101.1128436
lfemur  -8.1061306 -17.02685165 -20.53713417
ltibia  2.195101738 -1.481116176 15.41809082
lfoot  1.022272706 -23.00406265 38.22021866
ltoes  -8.660833745 -18.09709556 -116.12183
256
root  34.79686046 36.49494742 -14.97012161 8.048260689 -5.995172024 3.789479494
lowerback  -6.944540501 -2.194360018 -1.620440245
upperback  -4.438383579 -2.370140076 -3.289849997
thorax  -0.7600579858 -0.9984319806 -2.6291399
lowerneck  -5.329460144 -13.20339966 -11.68029976
upperneck  14.6232996 -18.25300217 11.70979977
head  7.530889988 -8.477330208 3.893085003
lclavicle  0 -4.497500157e-015 -2.743230041e-014
lhumerus  -50.91260147 29.27090073 62.21839905
lradius  -2.057401616e-006 -6.507048965e-006 31.27809906
lwrist  4.824992743e-007 -3.790274832e-007 -27.24220085
lhand  -0 -36.95510101 -10.36509991
lfingers  90 7.125020027 -90
lthumb  94.77577038 -25.20481961 101.0996093
rclavicle  0 -4.497500157e-015 -2.743230041e-014
rhumerus  -67.69680023 -27.63439941 -5.507659435
rradius  -5.16745672e-007 2.214343908e-008 99.9776001
rwrist  -0.0001011603963 0.002935101511 171.5691681
rhand  -1.768241542e-031 3.154350042 -5.80095005
rfingers  -90 -7.125020027 -90
rthumb  -84.50091829 -9.965484567 -60.9121963
rfemur  -12.56956577 16.64792442 12.87009048
rtibia  -1.476553917 -1.062096715 21.67296028
rfoot  -0.0314479433 -22.17141724 -35.88868332
rtoes  3.773962694 19.65503736 -101.0955726
lfemur  -8.188054085 -17.06536674 -20.48919106
ltibia  2.143848419 -1.492801785 15.49825478
lfoot  1.011115789 -23.01063728 38.20606613
ltoes  -8.668102293 -18.09370584 -116.1452316
257
root  34.79446351 36.49479123 -14.96768411 8.051060677 -5.986063957 3.792253494
lowerback  -6.944759846 -2.213690042 -1.589830279
upperback  -4.438109875 -2.399640083 -3.264820099
thorax  -0.7619550228 -1.014359951 -2.622159958
lowerneck  -5.413939953 -13.10560036 -11.66959953
upperneck  14.76640034 -18.11219978 11.66619968
head  7.569479942 -8.404190063 3.888770103
lclavicle  0 -4.497500157e-015 -2.743230041e-014
lhumerus  -50.90179825 29.19330025 62.29529953
lradius  -2.057401616e-006 -6.507048965e-006 31.30660057
lwrist  4.824992743e-007 -3.790274832e-007 -27.07900047
lhand  -4.4203722e-031 -36.98149872 -10.36349964
lfingers  90 7.125020027 -90
lthumb  94.78764474 -25.20230088 101.1276582
rclavicle  0 -4.497500157e-015 -2.743230041e-014
rhumerus  -68.18979645 -27.64649963 -6.384121895
rradius  -5.16745672e-007 2.214343908e-008 100.3280029
rwrist  -0.0001011603963 0.003166235518 171.3892212
rhand  -1.768210677e-031 3.136149883 -5.818649769
rfingers  -90 -7.125020027 -90
rthumb  -84.51415483 -9.949050752 -60.93144592
rfemur  -12.570467 16.69012642 12.87293053
rtibia  -1.473063231 -1.047345877 21.68135834
rfoot  -0.04256914929 -22.14645576 -35.93289185
rtoes  3.792956318 19.65152032 -101.1520462
lfemur  -8.168722153 -16.99772263 -20.4951725
ltibia  2.163249731 -1.463218689 15.46296406
lfoot  1.020246744 -23.05792427 38.18577957
ltoes  -8.645420154 -18.10427197 -116.0722188
